<?xml version="1.0" standalone="no"?>
<!DOCTYPE svg PUBLIC "-//W3C//DTD SVG 20010904//EN"
 "http://www.w3.org/TR/2001/REC-SVG-20010904/DTD/svg10.dtd">
<svg version="1.0" xmlns="http://www.w3.org/2000/svg"
 width="512.000000pt" height="512.000000pt" viewBox="0 0 512.000000 512.000000"
 preserveAspectRatio="xMidYMid meet">

<g transform="translate(0.000000,512.000000) scale(0.100000,-0.100000)"
fill="#000000" stroke="none">
<path d="M2410 4710 c-546 -37 -1056 -271 -1443 -664 -322 -327 -527 -729
-612 -1201 -22 -125 -31 -404 -16 -535 48 -412 218 -824 475 -1145 78 -97 256
-274 349 -348 331 -262 727 -428 1136 -477 121 -14 401 -14 522 0 406 49 816
220 1134 474 96 77 264 244 342 341 312 386 492 881 493 1357 1 535 -213 1074
-585 1478 -462 502 -1116 765 -1795 720z m515 -259 c808 -163 1425 -812 1540
-1622 19 -133 19 -395 0 -528 -122 -861 -797 -1532 -1654 -1646 -679 -91
-1372 200 -1784 747 -258 344 -387 732 -387 1166 1 322 64 586 211 872 283
551 813 931 1432 1025 144 22 501 14 642 -14z"/>
<path d="M2350 4316 c-395 -58 -735 -225 -1022 -504 -90 -88 -197 -212 -242
-283 l-18 -29 188 5 c104 3 245 10 314 14 68 5 131 6 140 3 33 -11 50 -36 50
-72 0 -61 -22 -73 -161 -84 -66 -5 -118 -13 -117 -17 2 -4 145 -422 318 -928
173 -507 317 -921 320 -921 3 0 90 256 194 568 l190 569 -133 349 c-74 192
-136 354 -138 360 -2 6 -61 15 -145 20 -129 9 -142 12 -159 33 -33 41 -20 104
25 121 13 5 85 4 167 -1 194 -13 596 -13 742 0 134 11 160 5 176 -41 13 -36 0
-71 -31 -92 -14 -9 -60 -18 -111 -22 -48 -4 -86 -10 -85 -14 2 -5 145 -422
318 -928 l315 -920 48 162 c26 88 86 287 133 440 133 439 149 549 95 661 -15
33 -76 121 -135 195 -132 166 -197 290 -222 425 -9 51 -14 111 -11 138 17 139
171 279 344 311 l65 12 -84 65 c-249 198 -516 325 -802 385 -153 31 -386 40
-526 20z"/>
<path d="M4124 3219 c-1 -278 21 -202 -388 -1378 -152 -437 -274 -796 -273
-798 2 -1 37 20 78 48 275 189 482 432 619 724 221 471 222 1019 4 1494 l-39
83 -1 -173z"/>
<path d="M907 3189 c-35 -89 -71 -224 -94 -349 -25 -140 -22 -426 5 -582 44
-243 160 -521 300 -718 79 -112 275 -313 383 -394 72 -53 271 -178 276 -172 4
4 -831 2286 -837 2286 -3 0 -18 -32 -33 -71z"/>
<path d="M2586 2380 c-3 -8 -116 -337 -251 -730 -135 -393 -252 -731 -260
-751 l-14 -36 67 -16 c167 -40 256 -51 437 -50 139 0 206 5 295 22 153 28 275
65 274 82 -1 8 -115 325 -254 704 -139 380 -260 713 -270 740 -11 32 -20 45
-24 35z"/>
</g>
</svg>
